<svg id="visual" viewBox="0 0 900 600" width="900" height="600" xmlns="http://www.w3.org/2000/svg" xmlns:xlink="http://www.w3.org/1999/xlink" version="1.1"><path d="M0 531L16.7 534.3C33.3 537.7 66.7 544.3 100 533.5C133.3 522.7 166.7 494.3 200 483.5C233.3 472.7 266.7 479.3 300 483C333.3 486.7 366.7 487.3 400 496.5C433.3 505.7 466.7 523.3 500 516.8C533.3 510.3 566.7 479.7 600 466.3C633.3 453 666.7 457 700 477.2C733.3 497.3 766.7 533.7 800 545.2C833.3 556.7 866.7 543.3 883.3 536.7L900 530L900 601L883.3 601C866.7 601 833.3 601 800 601C766.7 601 733.3 601 700 601C666.7 601 633.3 601 600 601C566.7 601 533.3 601 500 601C466.7 601 433.3 601 400 601C366.7 601 333.3 601 300 601C266.7 601 233.3 601 200 601C166.7 601 133.3 601 100 601C66.7 601 33.3 601 16.7 601L0 601Z" fill="#000000" stroke-linecap="round" stroke-linejoin="miter"></path></svg>