<svg id="visual" viewBox="0 0 960 540" width="960" height="540" xmlns="http://www.w3.org/2000/svg" xmlns:xlink="http://www.w3.org/1999/xlink" version="1.1"><rect x="0" y="0" width="960" height="540" fill="#FFF6E0"></rect><defs><linearGradient id="grad1_0" x1="43.8%" y1="0%" x2="100%" y2="100%"><stop offset="14.444444444444446%" stop-color="#fff6e0" stop-opacity="1"></stop><stop offset="85.55555555555554%" stop-color="#fff6e0" stop-opacity="1"></stop></linearGradient></defs><defs><linearGradient id="grad2_0" x1="0%" y1="0%" x2="56.3%" y2="100%"><stop offset="14.444444444444446%" stop-color="#fff6e0" stop-opacity="1"></stop><stop offset="85.55555555555554%" stop-color="#fff6e0" stop-opacity="1"></stop></linearGradient></defs><g transform="translate(960, 0)"><path d="M0 324C-14.3 302.4 -28.6 280.7 -43.2 272.6C-57.7 264.5 -72.6 269.9 -88.4 272C-104.2 274.1 -121 273.1 -138.5 271.8C-155.9 270.5 -173.9 268.9 -190.4 262.1C-207 255.3 -222 243.2 -222 222C-222 200.8 -207 170.5 -218.4 158.7C-229.8 146.9 -267.7 153.8 -286.9 146.2C-306.1 138.6 -306.8 116.6 -297.7 96.7C-288.6 76.8 -269.8 59 -272.6 43.2C-275.4 27.4 -299.7 13.7 -324 0L0 0Z" fill="#61677A"></path></g><g transform="translate(0, 540)"><path d="M0 -324C17.6 -324.6 35.2 -325.3 50.2 -317C65.2 -308.8 77.7 -291.7 92.4 -284.4C107.1 -277 124.2 -279.4 142.1 -278.9C160 -278.3 178.7 -274.8 190.4 -262.1C202.2 -249.5 207 -227.7 207.2 -207.2C207.4 -186.7 203.1 -167.4 220.1 -159.9C237 -152.3 275.3 -156.5 282.4 -143.9C289.6 -131.4 265.6 -102.1 253.9 -82.5C242.3 -62.9 243.1 -52.8 256.8 -40.7C270.5 -28.5 297.3 -14.3 324 0L0 0Z" fill="#61677A"></path></g></svg>