<svg id="visual" viewBox="0 0 900 600" width="900" height="600" xmlns="http://www.w3.org/2000/svg" xmlns:xlink="http://www.w3.org/1999/xlink" version="1.1"><rect x="0" y="0" width="900" height="600" fill="#e0e0e0"></rect><defs><linearGradient id="grad1_0" x1="33.3%" y1="0%" x2="100%" y2="100%"><stop offset="20%" stop-color="#e0e0e0" stop-opacity="1"></stop><stop offset="80%" stop-color="#e0e0e0" stop-opacity="1"></stop></linearGradient></defs><defs><linearGradient id="grad2_0" x1="0%" y1="0%" x2="66.7%" y2="100%"><stop offset="20%" stop-color="#e0e0e0" stop-opacity="1"></stop><stop offset="80%" stop-color="#e0e0e0" stop-opacity="1"></stop></linearGradient></defs><g transform="translate(900, 0)"><path d="M0 378.6C-65.4 366 -130.9 353.5 -185.5 321.3C-240.1 289.1 -284 237.3 -312.6 180.5C-341.3 123.7 -354.6 61.8 -368 0L0 0Z" fill="#001122"></path></g><g transform="translate(0, 600)"><path d="M0 -368C65.1 -359.9 130.2 -351.8 186 -322.2C241.8 -292.5 288.2 -241.3 318.7 -184C349.2 -126.7 363.9 -63.4 378.6 0L0 0Z" fill="#001122"></path></g></svg>