<svg id="visual" viewBox="0 0 960 540" width="960" height="540" xmlns="http://www.w3.org/2000/svg" xmlns:xlink="http://www.w3.org/1999/xlink" version="1.1"><path d="M0 71L87 71L87 147L175 147L175 222L262 222L262 131L349 131L349 222L436 222L436 114L524 114L524 168L611 168L611 158L698 158L698 82L785 82L785 125L873 125L873 104L960 104L960 174L960 0L960 0L873 0L873 0L785 0L785 0L698 0L698 0L611 0L611 0L524 0L524 0L436 0L436 0L349 0L349 0L262 0L262 0L175 0L175 0L87 0L87 0L0 0Z" fill="#fa7268"></path><path d="M0 244L87 244L87 271L175 271L175 303L262 303L262 347L349 347L349 336L436 336L436 368L524 368L524 325L611 325L611 330L698 330L698 271L785 271L785 282L873 282L873 298L960 298L960 374L960 172L960 102L873 102L873 123L785 123L785 80L698 80L698 156L611 156L611 166L524 166L524 112L436 112L436 220L349 220L349 129L262 129L262 220L175 220L175 145L87 145L87 69L0 69Z" fill="#ea5e66"></path><path d="M0 320L87 320L87 314L175 314L175 374L262 374L262 406L349 406L349 417L436 417L436 428L524 428L524 363L611 363L611 384L698 384L698 330L785 330L785 314L873 314L873 390L960 390L960 406L960 372L960 296L873 296L873 280L785 280L785 269L698 269L698 328L611 328L611 323L524 323L524 366L436 366L436 334L349 334L349 345L262 345L262 301L175 301L175 269L87 269L87 242L0 242Z" fill="#d84a64"></path><path d="M0 411L87 411L87 428L175 428L175 476L262 476L262 482L349 482L349 498L436 498L436 471L524 471L524 460L611 460L611 482L698 482L698 401L785 401L785 401L873 401L873 422L960 422L960 476L960 404L960 388L873 388L873 312L785 312L785 328L698 328L698 382L611 382L611 361L524 361L524 426L436 426L436 415L349 415L349 404L262 404L262 372L175 372L175 312L87 312L87 318L0 318Z" fill="#c53762"></path><path d="M0 541L87 541L87 541L175 541L175 541L262 541L262 541L349 541L349 541L436 541L436 541L524 541L524 541L611 541L611 541L698 541L698 541L785 541L785 541L873 541L873 541L960 541L960 541L960 474L960 420L873 420L873 399L785 399L785 399L698 399L698 480L611 480L611 458L524 458L524 469L436 469L436 496L349 496L349 480L262 480L262 474L175 474L175 426L87 426L87 409L0 409Z" fill="#b0235f"></path></svg>